# Object Export From Tinkercad Server 2015

mtllib obj.mtl

o obj_0
v -20 		10 		7
v -20 		30 		7
v -20 		10 		0
v -20 		30 		0
v -37 		30 		7
v -37 		10 		7
v -37 		30 		0
v -37 		10 		0
# 8 vertices

g group_0_1206582

usemtl color_1206582
s 0

f 1 	3 	2
f 3 	4 	2
f 5 	7 	6
f 7 	8 	6
f 5 	6 	2
f 6 	1 	2
f 8 	7 	3
f 7 	4 	3
f 6 	8 	1
f 8 	3 	1
f 2 	4 	5
f 4 	7 	5
# 12 faces

 #end of obj_0

o obj_1
v -30.6701 		1 		6
v -29 		12.8832 		6
v -30.6701 		1 		0
v -29 		12.8832 		0
v -34.9416 		13.7183 		6
v -36.6117 		1.835 		6
v -34.9416 		13.7183 		0
v -36.6117 		1.835 		0
# 8 vertices

g group_1_1206582

usemtl color_1206582
s 0

f 9 	11 	10
f 11 	12 	10
f 13 	15 	14
f 15 	16 	14
f 13 	14 	10
f 14 	9 	10
f 16 	15 	11
f 15 	12 	11
f 14 	16 	9
f 16 	11 	9
f 10 	12 	13
f 12 	15 	13
# 12 faces

 #end of obj_1

o obj_2
v -20.977 		1.5229 		6
v -22.0228 		13.4773 		6
v -20.977 		1.5229 		0
v -22.0228 		13.4773 		0
v -28 		12.9543 		6
v -26.9541 		1 		6
v -28 		12.9543 		0
v -26.9541 		1 		0
# 8 vertices

g group_2_1206582

usemtl color_1206582
s 0

f 17 	19 	18
f 19 	20 	18
f 21 	23 	22
f 23 	24 	22
f 21 	22 	18
f 22 	17 	18
f 24 	23 	19
f 23 	20 	19
f 22 	24 	17
f 24 	19 	17
f 18 	20 	21
f 20 	23 	21
# 12 faces

 #end of obj_2

o obj_3
v -31 		-3.8753 		3.9966
v -31.2611 		3.2669 		4.5938
v -31 		-3.5442 		1.0104
v -31.2611 		3.598 		1.6076
v -35 		3.1422 		4.5834
v -34.7389 		-4 		3.9862
v -35 		3.4733 		1.5972
v -34.7389 		-3.6689 		1
# 8 vertices

g group_3_12568524

usemtl color_12568524
s 0

f 25 	27 	26
f 27 	28 	26
f 29 	31 	30
f 31 	32 	30
f 29 	30 	26
f 30 	25 	26
f 32 	31 	27
f 31 	28 	27
f 30 	32 	25
f 32 	27 	25
f 26 	28 	29
f 28 	31 	29
# 12 faces

 #end of obj_3

o obj_4
v -22 		-3.8753 		4.3353
v -22.2611 		3.2669 		5
v -22 		-3.5442 		1.0116
v -22.2611 		3.598 		1.6763
v -26 		3.1422 		4.9884
v -25.7389 		-4 		4.3237
v -26 		3.4733 		1.6647
v -25.7389 		-3.6689 		1
# 8 vertices

g group_4_12568524

usemtl color_12568524
s 0

f 33 	35 	34
f 35 	36 	34
f 37 	39 	38
f 39 	40 	38
f 37 	38 	34
f 38 	33 	34
f 40 	39 	35
f 39 	36 	35
f 38 	40 	33
f 40 	35 	33
f 34 	36 	37
f 36 	39 	37
# 12 faces

 #end of obj_4

o obj_5
v 17 		10 		7
v 17 		30 		7
v 17 		10 		0
v 17 		30 		0
v 0 		30 		7
v 0 		10 		7
v 0 		30 		0
v 0 		10 		0
# 8 vertices

g group_5_1206582

usemtl color_1206582
s 0

f 41 	43 	42
f 43 	44 	42
f 45 	47 	46
f 47 	48 	46
f 45 	46 	42
f 46 	41 	42
f 48 	47 	43
f 47 	44 	43
f 46 	48 	41
f 48 	43 	41
f 42 	44 	45
f 44 	47 	45
# 12 faces

 #end of obj_5

o obj_6
v 6.3299 		1 		6
v 8 		12.8832 		6
v 6.3299 		1 		0
v 8 		12.8832 		0
v 2.0584 		13.7183 		6
v 0.3883 		1.835 		6
v 2.0584 		13.7183 		0
v 0.3883 		1.835 		0
# 8 vertices

g group_6_1206582

usemtl color_1206582
s 0

f 49 	51 	50
f 51 	52 	50
f 53 	55 	54
f 55 	56 	54
f 53 	54 	50
f 54 	49 	50
f 56 	55 	51
f 55 	52 	51
f 54 	56 	49
f 56 	51 	49
f 50 	52 	53
f 52 	55 	53
# 12 faces

 #end of obj_6

o obj_7
v 16.023 		1.5229 		6
v 14.9772 		13.4773 		6
v 16.023 		1.5229 		0
v 14.9772 		13.4773 		0
v 9 		12.9543 		6
v 10.0459 		1 		6
v 9 		12.9543 		0
v 10.0459 		1 		0
# 8 vertices

g group_7_1206582

usemtl color_1206582
s 0

f 57 	59 	58
f 59 	60 	58
f 61 	63 	62
f 63 	64 	62
f 61 	62 	58
f 62 	57 	58
f 64 	63 	59
f 63 	60 	59
f 62 	64 	57
f 64 	59 	57
f 58 	60 	61
f 60 	63 	61
# 12 faces

 #end of obj_7

o obj_8
v 6 		-3.8753 		3.9966
v 5.7389 		3.2669 		4.5938
v 6 		-3.5442 		1.0104
v 5.7389 		3.598 		1.6076
v 2 		3.1422 		4.5834
v 2.2611 		-4 		3.9862
v 2 		3.4733 		1.5972
v 2.2611 		-3.6689 		1
# 8 vertices

g group_8_12568524

usemtl color_12568524
s 0

f 65 	67 	66
f 67 	68 	66
f 69 	71 	70
f 71 	72 	70
f 69 	70 	66
f 70 	65 	66
f 72 	71 	67
f 71 	68 	67
f 70 	72 	65
f 72 	67 	65
f 66 	68 	69
f 68 	71 	69
# 12 faces

 #end of obj_8

o obj_9
v 15 		-3.8753 		4.3353
v 14.7389 		3.2669 		5
v 15 		-3.5442 		1.0116
v 14.7389 		3.598 		1.6763
v 11 		3.1422 		4.9884
v 11.2611 		-4 		4.3237
v 11 		3.4733 		1.6647
v 11.2611 		-3.6689 		1
# 8 vertices

g group_9_12568524

usemtl color_12568524
s 0

f 73 	75 	74
f 75 	76 	74
f 77 	79 	78
f 79 	80 	78
f 77 	78 	74
f 78 	73 	74
f 80 	79 	75
f 79 	76 	75
f 78 	80 	73
f 80 	75 	73
f 74 	76 	77
f 76 	79 	77
# 12 faces

 #end of obj_9

o obj_10
v 13 		9.8257 		26.9055
v 13 		19.8832 		33.0195
v 13 		17.9331 		0.9805
v 13 		27.9906 		7.0945
v 3 		19.8832 		33.0195
v 3 		9.8257 		26.9055
v 3 		27.9906 		7.0945
v 3 		17.9331 		0.9805
# 8 vertices

g group_10_1206582

usemtl color_1206582
s 0

f 81 	83 	82
f 83 	84 	82
f 85 	87 	86
f 87 	88 	86
f 85 	86 	82
f 86 	81 	82
f 88 	87 	83
f 87 	84 	83
f 86 	88 	81
f 88 	83 	81
f 82 	84 	85
f 84 	87 	85
# 12 faces

 #end of obj_10

o obj_11
v -23 		10 		27.0625
v -23 		20.1627 		33
v -23 		17.6537 		1
v -23 		27.8163 		6.9375
v -33 		20.1627 		33
v -33 		10 		27.0625
v -33 		27.8163 		6.9375
v -33 		17.6537 		1
# 8 vertices

g group_11_1206582

usemtl color_1206582
s 0

f 89 	91 	90
f 91 	92 	90
f 93 	95 	94
f 95 	96 	94
f 93 	94 	90
f 94 	89 	90
f 96 	95 	91
f 95 	92 	91
f 94 	96 	89
f 96 	91 	89
f 90 	92 	93
f 92 	95 	93
# 12 faces

 #end of obj_11

o obj_12
v 13 		-4.297 		34.3255
v 13 		3.1595 		43
v 13 		14.5435 		23.5794
v 13 		22 		32.2538
v 3 		3.1595 		43
v 3 		-4.297 		34.3255
v 3 		22 		32.2538
v 3 		14.5435 		23.5794
# 8 vertices

g group_12_1206582

usemtl color_1206582
s 0

f 97 	99 	98
f 99 	100 	98
f 101 	103 	102
f 103 	104 	102
f 101 	102 	98
f 102 	97 	98
f 104 	103 	99
f 103 	100 	99
f 102 	104 	97
f 104 	99 	97
f 98 	100 	101
f 100 	103 	101
# 12 faces

 #end of obj_12

o obj_13
v -23 		-4.297 		34.3255
v -23 		3.1595 		43
v -23 		14.5435 		23.5794
v -23 		22 		32.2538
v -33 		3.1595 		43
v -33 		-4.297 		34.3255
v -33 		22 		32.2538
v -33 		14.5435 		23.5794
# 8 vertices

g group_13_1206582

usemtl color_1206582
s 0

f 105 	107 	106
f 107 	108 	106
f 109 	111 	110
f 111 	112 	110
f 109 	110 	106
f 110 	105 	106
f 112 	111 	107
f 111 	108 	107
f 110 	112 	105
f 112 	107 	105
f 106 	108 	109
f 108 	111 	109
# 12 faces

 #end of obj_13

o obj_14
v -21 		-0.6537 		57.4525
v -35 		-0.6537 		57.4525
v -21 		7 		38.9749
v -35 		7 		38.9749
v -35 		-12.6641 		52.4776
v -21 		-12.6641 		52.4776
v -35 		-5.0104 		34
v -21 		-5.0104 		34
# 8 vertices

g group_14_1206582

usemtl color_1206582
s 0

f 113 	115 	114
f 115 	116 	114
f 117 	119 	118
f 119 	120 	118
f 117 	118 	114
f 118 	113 	114
f 120 	119 	115
f 119 	116 	115
f 118 	120 	113
f 120 	115 	113
f 114 	116 	117
f 116 	119 	117
# 12 faces

 #end of obj_14

o obj_15
v 15 		-0.6537 		57.4525
v 1 		-0.6537 		57.4525
v 15 		7 		38.9749
v 1 		7 		38.9749
v 1 		-12.6641 		52.4776
v 15 		-12.6641 		52.4776
v 1 		-5.0104 		34
v 15 		-5.0104 		34
# 8 vertices

g group_15_1206582

usemtl color_1206582
s 0

f 121 	123 	122
f 123 	124 	122
f 125 	127 	126
f 127 	128 	126
f 125 	126 	122
f 126 	121 	122
f 128 	127 	123
f 127 	124 	123
f 126 	128 	121
f 128 	123 	121
f 122 	124 	125
f 124 	127 	125
# 12 faces

 #end of obj_15

o obj_16
v 13 		21.7071 		25
v 13 		22.0573 		25.1849
v 13 		22.3871 		25.413
v 13 		22.6934 		25.682
v 13 		22.9731 		25.9895
v 13 		23.2236 		26.3323
v 13 		23.4424 		26.7073
v 13 		23.6275 		27.1108
v 13 		23.7771 		27.5389
v 13 		23.8897 		27.9875
v 13 		23.9642 		28.4523
v 13 		24 		28.9288
v 13 		23.9967 		29.4124
v 13 		23.9542 		29.8985
v 13 		23.8731 		30.3823
v 13 		23.7542 		30.8593
v 13 		23.5984 		31.3247
v 13 		23.4074 		31.7743
v 13 		23.183 		32.2035
v 13 		22.9274 		32.6083
v 13 		22.643 		32.9848
v 13 		22.3325 		33.3293
v 13 		21.999 		33.6386
v 13 		21.6456 		33.9097
v 13 		21.2758 		34.1398
v 13 		20.8931 		34.3269
v 13 		20.5012 		34.4692
v 13 		20.1039 		34.5652
v 13 		19.705 		34.614
v 13 		19.3083 		34.6152
v 13 		18.9177 		34.5688
v 13 		18.537 		34.4751
v 13 		18.1697 		34.3351
v 3 		21.7071 		25
v 3 		22.0573 		25.1849
v 3 		22.3871 		25.413
v 3 		22.6934 		25.682
v 3 		22.9731 		25.9895
v 3 		23.2236 		26.3323
v 3 		23.4424 		26.7073
v 3 		23.6275 		27.1108
v 3 		23.7771 		27.5389
v 3 		23.8897 		27.9875
v 3 		23.9642 		28.4523
v 3 		24 		28.9288
v 3 		23.9967 		29.4124
v 3 		23.9542 		29.8985
v 3 		23.8731 		30.3823
v 3 		23.7542 		30.8593
v 3 		23.5984 		31.3247
v 3 		23.4074 		31.7743
v 3 		23.183 		32.2035
v 3 		22.9274 		32.6083
v 3 		22.643 		32.9848
v 3 		22.3325 		33.3293
v 3 		21.999 		33.6386
v 3 		21.6456 		33.9097
v 3 		21.2758 		34.1398
v 3 		20.8931 		34.3269
v 3 		20.5012 		34.4692
v 3 		20.1039 		34.5652
v 3 		19.705 		34.614
v 3 		19.3083 		34.6152
v 3 		18.9177 		34.5688
v 3 		18.537 		34.4751
v 3 		18.1697 		34.3351
v 13 		19.9384 		29.6676
v 3 		19.9384 		29.6676
# 68 vertices

g group_16_1206582

usemtl color_1206582
s 0

f 162 	163 	130
f 129 	162 	130
f 163 	164 	131
f 130 	163 	131
f 164 	165 	132
f 131 	164 	132
f 165 	166 	133
f 132 	165 	133
f 166 	167 	134
f 133 	166 	134
f 167 	168 	135
f 134 	167 	135
f 168 	169 	136
f 135 	168 	136
f 169 	170 	137
f 136 	169 	137
f 170 	171 	138
f 137 	170 	138
f 171 	172 	139
f 138 	171 	139
f 172 	173 	140
f 139 	172 	140
f 173 	174 	141
f 140 	173 	141
f 174 	175 	142
f 141 	174 	142
f 175 	176 	143
f 142 	175 	143
f 176 	177 	144
f 143 	176 	144
f 177 	178 	145
f 144 	177 	145
f 178 	179 	146
f 145 	178 	146
f 179 	180 	147
f 146 	179 	147
f 180 	181 	148
f 147 	180 	148
f 181 	182 	149
f 148 	181 	149
f 182 	183 	150
f 149 	182 	150
f 183 	184 	151
f 150 	183 	151
f 184 	185 	152
f 151 	184 	152
f 185 	186 	153
f 152 	185 	153
f 186 	187 	154
f 153 	186 	154
f 187 	188 	155
f 154 	187 	155
f 188 	189 	156
f 155 	188 	156
f 189 	190 	157
f 156 	189 	157
f 190 	191 	158
f 157 	190 	158
f 191 	192 	159
f 158 	191 	159
f 192 	193 	160
f 159 	192 	160
f 193 	194 	161
f 160 	193 	161
f 129 	130 	195
f 130 	131 	195
f 131 	132 	195
f 132 	133 	195
f 133 	134 	195
f 134 	135 	195
f 135 	136 	195
f 136 	137 	195
f 137 	138 	195
f 138 	139 	195
f 139 	140 	195
f 140 	141 	195
f 141 	142 	195
f 142 	143 	195
f 143 	144 	195
f 144 	145 	195
f 145 	146 	195
f 146 	147 	195
f 147 	148 	195
f 148 	149 	195
f 149 	150 	195
f 150 	151 	195
f 151 	152 	195
f 152 	153 	195
f 153 	154 	195
f 154 	155 	195
f 155 	156 	195
f 156 	157 	195
f 157 	158 	195
f 158 	159 	195
f 159 	160 	195
f 160 	161 	195
f 163 	162 	196
f 164 	163 	196
f 165 	164 	196
f 166 	165 	196
f 167 	166 	196
f 168 	167 	196
f 169 	168 	196
f 170 	169 	196
f 171 	170 	196
f 172 	171 	196
f 173 	172 	196
f 174 	173 	196
f 175 	174 	196
f 176 	175 	196
f 177 	176 	196
f 178 	177 	196
f 179 	178 	196
f 180 	179 	196
f 181 	180 	196
f 182 	181 	196
f 183 	182 	196
f 184 	183 	196
f 185 	184 	196
f 186 	185 	196
f 187 	186 	196
f 188 	187 	196
f 189 	188 	196
f 190 	189 	196
f 191 	190 	196
f 192 	191 	196
f 193 	192 	196
f 194 	193 	196
f 129 	161 	162
f 162 	161 	194
# 130 faces

 #end of obj_16

o obj_17
v -23 		21.7071 		25
v -23 		22.0573 		25.1849
v -23 		22.3871 		25.413
v -23 		22.6934 		25.682
v -23 		22.9731 		25.9895
v -23 		23.2236 		26.3323
v -23 		23.4424 		26.7073
v -23 		23.6275 		27.1108
v -23 		23.7771 		27.5389
v -23 		23.8897 		27.9875
v -23 		23.9642 		28.4523
v -23 		24 		28.9288
v -23 		23.9967 		29.4124
v -23 		23.9542 		29.8985
v -23 		23.8731 		30.3823
v -23 		23.7542 		30.8593
v -23 		23.5984 		31.3247
v -23 		23.4074 		31.7743
v -23 		23.183 		32.2035
v -23 		22.9274 		32.6083
v -23 		22.643 		32.9848
v -23 		22.3325 		33.3293
v -23 		21.999 		33.6386
v -23 		21.6456 		33.9097
v -23 		21.2758 		34.1398
v -23 		20.8931 		34.3269
v -23 		20.5012 		34.4692
v -23 		20.1039 		34.5652
v -23 		19.705 		34.614
v -23 		19.3083 		34.6152
v -23 		18.9177 		34.5688
v -23 		18.537 		34.4751
v -23 		18.1697 		34.3351
v -33 		21.7071 		25
v -33 		22.0573 		25.1849
v -33 		22.3871 		25.413
v -33 		22.6934 		25.682
v -33 		22.9731 		25.9895
v -33 		23.2236 		26.3323
v -33 		23.4424 		26.7073
v -33 		23.6275 		27.1108
v -33 		23.7771 		27.5389
v -33 		23.8897 		27.9875
v -33 		23.9642 		28.4523
v -33 		24 		28.9288
v -33 		23.9967 		29.4124
v -33 		23.9542 		29.8985
v -33 		23.8731 		30.3823
v -33 		23.7542 		30.8593
v -33 		23.5984 		31.3247
v -33 		23.4074 		31.7743
v -33 		23.183 		32.2035
v -33 		22.9274 		32.6083
v -33 		22.643 		32.9848
v -33 		22.3325 		33.3293
v -33 		21.999 		33.6386
v -33 		21.6456 		33.9097
v -33 		21.2758 		34.1398
v -33 		20.8931 		34.3269
v -33 		20.5012 		34.4692
v -33 		20.1039 		34.5652
v -33 		19.705 		34.614
v -33 		19.3083 		34.6152
v -33 		18.9177 		34.5688
v -33 		18.537 		34.4751
v -33 		18.1697 		34.3351
v -23 		19.9384 		29.6676
v -33 		19.9384 		29.6676
# 68 vertices

g group_17_1206582

usemtl color_1206582
s 0

f 230 	231 	198
f 197 	230 	198
f 231 	232 	199
f 198 	231 	199
f 232 	233 	200
f 199 	232 	200
f 233 	234 	201
f 200 	233 	201
f 234 	235 	202
f 201 	234 	202
f 235 	236 	203
f 202 	235 	203
f 236 	237 	204
f 203 	236 	204
f 237 	238 	205
f 204 	237 	205
f 238 	239 	206
f 205 	238 	206
f 239 	240 	207
f 206 	239 	207
f 240 	241 	208
f 207 	240 	208
f 241 	242 	209
f 208 	241 	209
f 242 	243 	210
f 209 	242 	210
f 243 	244 	211
f 210 	243 	211
f 244 	245 	212
f 211 	244 	212
f 245 	246 	213
f 212 	245 	213
f 246 	247 	214
f 213 	246 	214
f 247 	248 	215
f 214 	247 	215
f 248 	249 	216
f 215 	248 	216
f 249 	250 	217
f 216 	249 	217
f 250 	251 	218
f 217 	250 	218
f 251 	252 	219
f 218 	251 	219
f 252 	253 	220
f 219 	252 	220
f 253 	254 	221
f 220 	253 	221
f 254 	255 	222
f 221 	254 	222
f 255 	256 	223
f 222 	255 	223
f 256 	257 	224
f 223 	256 	224
f 257 	258 	225
f 224 	257 	225
f 258 	259 	226
f 225 	258 	226
f 259 	260 	227
f 226 	259 	227
f 260 	261 	228
f 227 	260 	228
f 261 	262 	229
f 228 	261 	229
f 197 	198 	263
f 198 	199 	263
f 199 	200 	263
f 200 	201 	263
f 201 	202 	263
f 202 	203 	263
f 203 	204 	263
f 204 	205 	263
f 205 	206 	263
f 206 	207 	263
f 207 	208 	263
f 208 	209 	263
f 209 	210 	263
f 210 	211 	263
f 211 	212 	263
f 212 	213 	263
f 213 	214 	263
f 214 	215 	263
f 215 	216 	263
f 216 	217 	263
f 217 	218 	263
f 218 	219 	263
f 219 	220 	263
f 220 	221 	263
f 221 	222 	263
f 222 	223 	263
f 223 	224 	263
f 224 	225 	263
f 225 	226 	263
f 226 	227 	263
f 227 	228 	263
f 228 	229 	263
f 231 	230 	264
f 232 	231 	264
f 233 	232 	264
f 234 	233 	264
f 235 	234 	264
f 236 	235 	264
f 237 	236 	264
f 238 	237 	264
f 239 	238 	264
f 240 	239 	264
f 241 	240 	264
f 242 	241 	264
f 243 	242 	264
f 244 	243 	264
f 245 	244 	264
f 246 	245 	264
f 247 	246 	264
f 248 	247 	264
f 249 	248 	264
f 250 	249 	264
f 251 	250 	264
f 252 	251 	264
f 253 	252 	264
f 254 	253 	264
f 255 	254 	264
f 256 	255 	264
f 257 	256 	264
f 258 	257 	264
f 259 	258 	264
f 260 	259 	264
f 261 	260 	264
f 262 	261 	264
f 197 	229 	230
f 230 	229 	262
# 130 faces

 #end of obj_17

o obj_18
v 8 		-39.2431 		65.4594
v 8 		2.8172 		56.5192
v 8 		-43.8172 		43.9402
v 8 		-1.7569 		35
v -27 		2.8172 		56.5192
v -27 		-39.2431 		65.4594
v -27 		-1.7569 		35
v -27 		-43.8172 		43.9402
# 8 vertices

g group_18_1206582

usemtl color_1206582
s 0

f 265 	267 	266
f 267 	268 	266
f 269 	271 	270
f 271 	272 	270
f 269 	270 	266
f 270 	265 	266
f 272 	271 	267
f 271 	268 	267
f 270 	272 	265
f 272 	267 	265
f 266 	268 	269
f 268 	271 	269
# 12 faces

 #end of obj_18

o obj_19
v 3 		-58 		65
v 3 		-38 		65
v 3 		-58 		44
v 3 		-38 		44
v -25 		-38 		65
v -25 		-58 		65
v -25 		-38 		44
v -25 		-58 		44
# 8 vertices

g group_19_1206582

usemtl color_1206582
s 0

f 273 	275 	274
f 275 	276 	274
f 277 	279 	278
f 279 	280 	278
f 277 	278 	274
f 278 	273 	274
f 280 	279 	275
f 279 	276 	275
f 278 	280 	273
f 280 	275 	273
f 274 	276 	277
f 276 	279 	277
# 12 faces

 #end of obj_19

o obj_20
v 7 		-62.3307 		30.4798
v 3.0492 		-62.9322 		30.3073
v 6.3566 		-58.6255 		32.2967
v 2.4058 		-59.227 		32.1243
v 2.9406 		-61.187 		26.7098
v 6.8913 		-60.5855 		26.8823
v 2.2972 		-57.4818 		28.5267
v 6.2479 		-56.8803 		28.6992
# 8 vertices

g group_20_1206582

usemtl color_1206582
s 0

f 281 	283 	282
f 283 	284 	282
f 285 	287 	286
f 287 	288 	286
f 285 	286 	282
f 286 	281 	282
f 288 	287 	283
f 287 	284 	283
f 286 	288 	281
f 288 	283 	281
f 282 	284 	285
f 284 	287 	285
# 12 faces

 #end of obj_20

o obj_21
v 6.8818 		-65.0395 		27.1729
v 4.248 		-65.4405 		27.0579
v 6.2824 		-61.844 		29.7597
v 3.6485 		-62.245 		29.6447
v 4.0947 		-63.9408 		25.339
v 6.7285 		-63.5398 		25.454
v 3.4952 		-60.7454 		27.9258
v 6.1291 		-60.3444 		28.0408
# 8 vertices

g group_21_12568524

usemtl color_12568524
s 0

f 289 	291 	290
f 291 	292 	290
f 293 	295 	294
f 295 	296 	294
f 293 	294 	290
f 294 	289 	290
f 296 	295 	291
f 295 	292 	291
f 294 	296 	289
f 296 	291 	289
f 290 	292 	293
f 292 	295 	293
# 12 faces

 #end of obj_21

o obj_22
v 7 		-59.6745 		32.3453
v 7 		-51.9844 		34.5504
v 7 		-58.2963 		27.539
v 7 		-50.6062 		29.7441
v -3 		-51.9844 		34.5504
v -3 		-59.6745 		32.3453
v -3 		-50.6062 		29.7441
v -3 		-58.2963 		27.539
# 8 vertices

g group_22_1206582

usemtl color_1206582
s 0

f 297 	299 	298
f 299 	300 	298
f 301 	303 	302
f 303 	304 	302
f 301 	302 	298
f 302 	297 	298
f 304 	303 	299
f 303 	300 	299
f 302 	304 	297
f 304 	299 	297
f 298 	300 	301
f 300 	303 	301
# 12 faces

 #end of obj_22

o obj_23
v 0.9311 		-62.9744 		30.2952
v -2.9954 		-62.2407 		30.5056
v 1.7159 		-59.2931 		32.1053
v -2.2106 		-58.5595 		32.3157
v -2.8629 		-60.4995 		26.9069
v 1.0636 		-61.2332 		26.6966
v -2.0781 		-56.8183 		28.717
v 1.8484 		-57.5519 		28.5066
# 8 vertices

g group_23_1206582

usemtl color_1206582
s 0

f 305 	307 	306
f 307 	308 	306
f 309 	311 	310
f 311 	312 	310
f 309 	310 	306
f 310 	305 	306
f 312 	311 	307
f 311 	308 	307
f 310 	312 	305
f 312 	307 	305
f 306 	308 	309
f 308 	311 	309
# 12 faces

 #end of obj_23

o obj_24
v -0.3823 		-65.4405 		27.0579
v -3 		-64.9513 		27.1981
v 0.3488 		-62.2673 		29.6383
v -2.2688 		-61.7782 		29.7786
v -2.813 		-63.4574 		25.4776
v -0.1954 		-63.9465 		25.3373
v -2.0819 		-60.2843 		28.058
v 0.5358 		-60.7734 		27.9178
# 8 vertices

g group_24_12568524

usemtl color_12568524
s 0

f 313 	315 	314
f 315 	316 	314
f 317 	319 	318
f 319 	320 	318
f 317 	318 	314
f 318 	313 	314
f 320 	319 	315
f 319 	316 	315
f 318 	320 	313
f 320 	315 	313
f 314 	316 	317
f 316 	319 	317
# 12 faces

 #end of obj_24

o obj_25
v 5 		-54.7348 		33.2582
v 5 		-48.1742 		40.8053
v 5 		-52.4707 		31.29
v 5 		-45.9101 		38.8371
v -1 		-48.1742 		40.8053
v -1 		-54.7348 		33.2582
v -1 		-45.9101 		38.8371
v -1 		-52.4707 		31.29
# 8 vertices

g group_25_1206582

usemtl color_1206582
s 0

f 321 	323 	322
f 323 	324 	322
f 325 	327 	326
f 327 	328 	326
f 325 	326 	322
f 326 	321 	322
f 328 	327 	323
f 327 	324 	323
f 326 	328 	321
f 328 	323 	321
f 322 	324 	325
f 324 	327 	325
# 12 faces

 #end of obj_25

o obj_26
v 5 		-48.8484 		38.1257
v 5 		-49.72 		48.0876
v 5 		-45.8598 		38.3872
v 5 		-46.7314 		48.3491
v -1 		-49.72 		48.0876
v -1 		-48.8484 		38.1257
v -1 		-46.7314 		48.3491
v -1 		-45.8598 		38.3872
# 8 vertices

g group_26_1206582

usemtl color_1206582
s 0

f 329 	331 	330
f 331 	332 	330
f 333 	335 	334
f 335 	336 	334
f 333 	334 	330
f 334 	329 	330
f 336 	335 	331
f 335 	332 	331
f 334 	336 	329
f 336 	331 	329
f 330 	332 	333
f 332 	335 	333
# 12 faces

 #end of obj_26

o obj_27
v -1 		-46.9631 		39.7544
v -1 		-46.7969 		39.6849
v -1 		-46.6383 		39.5979
v -1 		-46.489 		39.494
v -1 		-46.3503 		39.3743
v -1 		-46.2236 		39.24
v -1 		-46.1101 		39.0924
v -1 		-46.0109 		38.9328
v -1 		-45.9269 		38.7629
v -1 		-45.859 		38.5842
v -1 		-45.8078 		38.3985
v -1 		-45.7738 		38.2076
v -1 		-45.7574 		38.0132
v -1 		-45.7587 		37.8174
v -1 		-45.7776 		37.6219
v -1 		-45.814 		37.4286
v -1 		-45.8676 		37.2395
v -1 		-45.9378 		37.0563
v -1 		-46.024 		36.8808
v -1 		-46.1253 		36.7146
v -1 		-46.2407 		36.5595
v -1 		-46.3692 		36.4168
v -1 		-46.5095 		36.2879
v -1 		-46.6602 		36.1742
v -1 		-46.82 		36.0766
v -1 		-46.9872 		35.9962
v -1 		-47.1602 		35.9337
v -1 		-47.3374 		35.8897
v -1 		-47.5172 		35.8646
v -1 		-47.6976 		35.8586
v -1 		-47.8771 		35.8719
v -1 		-48.0538 		35.9043
v -1 		-48.2261 		35.9555
v 5 		-46.9631 		39.7544
v 5 		-46.7969 		39.6849
v 5 		-46.6383 		39.5979
v 5 		-46.489 		39.494
v 5 		-46.3503 		39.3743
v 5 		-46.2236 		39.24
v 5 		-46.1101 		39.0924
v 5 		-46.0109 		38.9328
v 5 		-45.9269 		38.7629
v 5 		-45.859 		38.5842
v 5 		-45.8078 		38.3985
v 5 		-45.7738 		38.2076
v 5 		-45.7574 		38.0132
v 5 		-45.7587 		37.8174
v 5 		-45.7776 		37.6219
v 5 		-45.814 		37.4286
v 5 		-45.8676 		37.2395
v 5 		-45.9378 		37.0563
v 5 		-46.024 		36.8808
v 5 		-46.1253 		36.7146
v 5 		-46.2407 		36.5595
v 5 		-46.3692 		36.4168
v 5 		-46.5095 		36.2879
v 5 		-46.6602 		36.1742
v 5 		-46.82 		36.0766
v 5 		-46.9872 		35.9962
v 5 		-47.1602 		35.9337
v 5 		-47.3374 		35.8897
v 5 		-47.5172 		35.8646
v 5 		-47.6976 		35.8586
v 5 		-47.8771 		35.8719
v 5 		-48.0538 		35.9043
v 5 		-48.2261 		35.9555
v -1 		-47.5946 		37.855
v 5 		-47.5946 		37.855
# 68 vertices

g group_27_1206582

usemtl color_1206582
s 0

f 370 	371 	338
f 337 	370 	338
f 371 	372 	339
f 338 	371 	339
f 372 	373 	340
f 339 	372 	340
f 373 	374 	341
f 340 	373 	341
f 374 	375 	342
f 341 	374 	342
f 375 	376 	343
f 342 	375 	343
f 376 	377 	344
f 343 	376 	344
f 377 	378 	345
f 344 	377 	345
f 378 	379 	346
f 345 	378 	346
f 379 	380 	347
f 346 	379 	347
f 380 	381 	348
f 347 	380 	348
f 381 	382 	349
f 348 	381 	349
f 382 	383 	350
f 349 	382 	350
f 383 	384 	351
f 350 	383 	351
f 384 	385 	352
f 351 	384 	352
f 385 	386 	353
f 352 	385 	353
f 386 	387 	354
f 353 	386 	354
f 387 	388 	355
f 354 	387 	355
f 388 	389 	356
f 355 	388 	356
f 389 	390 	357
f 356 	389 	357
f 390 	391 	358
f 357 	390 	358
f 391 	392 	359
f 358 	391 	359
f 392 	393 	360
f 359 	392 	360
f 393 	394 	361
f 360 	393 	361
f 394 	395 	362
f 361 	394 	362
f 395 	396 	363
f 362 	395 	363
f 396 	397 	364
f 363 	396 	364
f 397 	398 	365
f 364 	397 	365
f 398 	399 	366
f 365 	398 	366
f 399 	400 	367
f 366 	399 	367
f 400 	401 	368
f 367 	400 	368
f 401 	402 	369
f 368 	401 	369
f 337 	338 	403
f 338 	339 	403
f 339 	340 	403
f 340 	341 	403
f 341 	342 	403
f 342 	343 	403
f 343 	344 	403
f 344 	345 	403
f 345 	346 	403
f 346 	347 	403
f 347 	348 	403
f 348 	349 	403
f 349 	350 	403
f 350 	351 	403
f 351 	352 	403
f 352 	353 	403
f 353 	354 	403
f 354 	355 	403
f 355 	356 	403
f 356 	357 	403
f 357 	358 	403
f 358 	359 	403
f 359 	360 	403
f 360 	361 	403
f 361 	362 	403
f 362 	363 	403
f 363 	364 	403
f 364 	365 	403
f 365 	366 	403
f 366 	367 	403
f 367 	368 	403
f 368 	369 	403
f 371 	370 	404
f 372 	371 	404
f 373 	372 	404
f 374 	373 	404
f 375 	374 	404
f 376 	375 	404
f 377 	376 	404
f 378 	377 	404
f 379 	378 	404
f 380 	379 	404
f 381 	380 	404
f 382 	381 	404
f 383 	382 	404
f 384 	383 	404
f 385 	384 	404
f 386 	385 	404
f 387 	386 	404
f 388 	387 	404
f 389 	388 	404
f 390 	389 	404
f 391 	390 	404
f 392 	391 	404
f 393 	392 	404
f 394 	393 	404
f 395 	394 	404
f 396 	395 	404
f 397 	396 	404
f 398 	397 	404
f 399 	398 	404
f 400 	399 	404
f 401 	400 	404
f 402 	401 	404
f 337 	369 	370
f 370 	369 	402
# 130 faces

 #end of obj_27

o obj_28
v -19 		-62.8903 		31.1425
v -22.9508 		-63.4918 		30.97
v -19.6434 		-59.1851 		32.9594
v -23.5942 		-59.7866 		32.7869
v -23.0594 		-61.7465 		27.3725
v -19.1087 		-61.145 		27.5449
v -23.7028 		-58.0413 		29.1894
v -19.7521 		-57.4398 		29.3619
# 8 vertices

g group_28_1206582

usemtl color_1206582
s 0

f 405 	407 	406
f 407 	408 	406
f 409 	411 	410
f 411 	412 	410
f 409 	410 	406
f 410 	405 	406
f 412 	411 	407
f 411 	408 	407
f 410 	412 	405
f 412 	407 	405
f 406 	408 	409
f 408 	411 	409
# 12 faces

 #end of obj_28

o obj_29
v -19.1182 		-65.599 		27.8355
v -21.752 		-66 		27.7205
v -19.7176 		-62.4036 		30.4224
v -22.3515 		-62.8046 		30.3074
v -21.9053 		-64.5003 		26.0016
v -19.2715 		-64.0993 		26.1166
v -22.5048 		-61.3049 		28.5885
v -19.8709 		-60.9039 		28.7035
# 8 vertices

g group_29_12568524

usemtl color_12568524
s 0

f 413 	415 	414
f 415 	416 	414
f 417 	419 	418
f 419 	420 	418
f 417 	418 	414
f 418 	413 	414
f 420 	419 	415
f 419 	416 	415
f 418 	420 	413
f 420 	415 	413
f 414 	416 	417
f 416 	419 	417
# 12 faces

 #end of obj_29

o obj_30
v -19 		-60.234 		33.0079
v -19 		-52.5439 		35.213
v -19 		-58.8559 		28.2016
v -19 		-51.1658 		30.4067
v -29 		-52.5439 		35.213
v -29 		-60.234 		33.0079
v -29 		-51.1658 		30.4067
v -29 		-58.8559 		28.2016
# 8 vertices

g group_30_1206582

usemtl color_1206582
s 0

f 421 	423 	422
f 423 	424 	422
f 425 	427 	426
f 427 	428 	426
f 425 	426 	422
f 426 	421 	422
f 428 	427 	423
f 427 	424 	423
f 426 	428 	421
f 428 	423 	421
f 422 	424 	425
f 424 	427 	425
# 12 faces

 #end of obj_30

o obj_31
v -25.0689 		-63.5339 		30.9579
v -28.9954 		-62.8002 		31.1683
v -24.2841 		-59.8527 		32.768
v -28.2106 		-59.119 		32.9783
v -28.8629 		-61.059 		27.5696
v -24.9364 		-61.7927 		27.3592
v -28.0781 		-57.3778 		29.3796
v -24.1516 		-58.1115 		29.1693
# 8 vertices

g group_31_1206582

usemtl color_1206582
s 0

f 429 	431 	430
f 431 	432 	430
f 433 	435 	434
f 435 	436 	434
f 433 	434 	430
f 434 	429 	430
f 436 	435 	431
f 435 	432 	431
f 434 	436 	429
f 436 	431 	429
f 430 	432 	433
f 432 	435 	433
# 12 faces

 #end of obj_31

o obj_32
v -26.3823 		-66 		27.7205
v -29 		-65.5109 		27.8608
v -25.6512 		-62.8269 		30.301
v -28.2688 		-62.3378 		30.4412
v -28.813 		-64.0169 		26.1403
v -26.1954 		-64.5061 		26
v -28.0819 		-60.8438 		28.7207
v -25.4642 		-61.3329 		28.5804
# 8 vertices

g group_32_12568524

usemtl color_12568524
s 0

f 437 	439 	438
f 439 	440 	438
f 441 	443 	442
f 443 	444 	442
f 441 	442 	438
f 442 	437 	438
f 444 	443 	439
f 443 	440 	439
f 442 	444 	437
f 444 	439 	437
f 438 	440 	441
f 440 	443 	441
# 12 faces

 #end of obj_32

o obj_33
v -21 		-55.2943 		33.9209
v -21 		-48.7337 		41.468
v -21 		-53.0302 		31.9527
v -21 		-46.4696 		39.4998
v -27 		-48.7337 		41.468
v -27 		-55.2943 		33.9209
v -27 		-46.4696 		39.4998
v -27 		-53.0302 		31.9527
# 8 vertices

g group_33_1206582

usemtl color_1206582
s 0

f 445 	447 	446
f 447 	448 	446
f 449 	451 	450
f 451 	452 	450
f 449 	450 	446
f 450 	445 	446
f 452 	451 	447
f 451 	448 	447
f 450 	452 	445
f 452 	447 	445
f 446 	448 	449
f 448 	451 	449
# 12 faces

 #end of obj_33

o obj_34
v -21 		-49.408 		38.7884
v -21 		-50.2795 		48.7503
v -21 		-46.4194 		39.0498
v -21 		-47.2909 		49.0118
v -27 		-50.2795 		48.7503
v -27 		-49.408 		38.7884
v -27 		-47.2909 		49.0118
v -27 		-46.4194 		39.0498
# 8 vertices

g group_34_1206582

usemtl color_1206582
s 0

f 453 	455 	454
f 455 	456 	454
f 457 	459 	458
f 459 	460 	458
f 457 	458 	454
f 458 	453 	454
f 460 	459 	455
f 459 	456 	455
f 458 	460 	453
f 460 	455 	453
f 454 	456 	457
f 456 	459 	457
# 12 faces

 #end of obj_34

o obj_35
v -27 		-47.5226 		40.4171
v -27 		-47.3564 		40.3476
v -27 		-47.1979 		40.2605
v -27 		-47.0485 		40.1566
v -27 		-46.9098 		40.037
v -27 		-46.7831 		39.9027
v -27 		-46.6696 		39.755
v -27 		-46.5704 		39.5955
v -27 		-46.4864 		39.4256
v -27 		-46.4185 		39.2469
v -27 		-46.3674 		39.0612
v -27 		-46.3334 		38.8702
v -27 		-46.3169 		38.6759
v -27 		-46.3182 		38.4801
v -27 		-46.3371 		38.2846
v -27 		-46.3736 		38.0913
v -27 		-46.4271 		37.9022
v -27 		-46.4974 		37.719
v -27 		-46.5835 		37.5434
v -27 		-46.6848 		37.3773
v -27 		-46.8003 		37.2221
v -27 		-46.9288 		37.0794
v -27 		-47.069 		36.9506
v -27 		-47.2198 		36.8369
v -27 		-47.3795 		36.7393
v -27 		-47.5467 		36.6589
v -27 		-47.7198 		36.5964
v -27 		-47.897 		36.5523
v -27 		-48.0767 		36.5272
v -27 		-48.2571 		36.5213
v -27 		-48.4366 		36.5346
v -27 		-48.6133 		36.567
v -27 		-48.7857 		36.6182
v -21 		-47.5226 		40.4171
v -21 		-47.3564 		40.3476
v -21 		-47.1979 		40.2605
v -21 		-47.0485 		40.1566
v -21 		-46.9098 		40.037
v -21 		-46.7831 		39.9027
v -21 		-46.6696 		39.755
v -21 		-46.5704 		39.5955
v -21 		-46.4864 		39.4256
v -21 		-46.4185 		39.2469
v -21 		-46.3674 		39.0612
v -21 		-46.3334 		38.8702
v -21 		-46.3169 		38.6759
v -21 		-46.3182 		38.4801
v -21 		-46.3371 		38.2846
v -21 		-46.3736 		38.0913
v -21 		-46.4271 		37.9022
v -21 		-46.4974 		37.719
v -21 		-46.5835 		37.5434
v -21 		-46.6848 		37.3773
v -21 		-46.8003 		37.2221
v -21 		-46.9288 		37.0794
v -21 		-47.069 		36.9506
v -21 		-47.2198 		36.8369
v -21 		-47.3795 		36.7393
v -21 		-47.5467 		36.6589
v -21 		-47.7198 		36.5964
v -21 		-47.897 		36.5523
v -21 		-48.0767 		36.5272
v -21 		-48.2571 		36.5213
v -21 		-48.4366 		36.5346
v -21 		-48.6133 		36.567
v -21 		-48.7857 		36.6182
v -27 		-48.1542 		38.5176
v -21 		-48.1542 		38.5176
# 68 vertices

g group_35_1206582

usemtl color_1206582
s 0

f 494 	495 	462
f 461 	494 	462
f 495 	496 	463
f 462 	495 	463
f 496 	497 	464
f 463 	496 	464
f 497 	498 	465
f 464 	497 	465
f 498 	499 	466
f 465 	498 	466
f 499 	500 	467
f 466 	499 	467
f 500 	501 	468
f 467 	500 	468
f 501 	502 	469
f 468 	501 	469
f 502 	503 	470
f 469 	502 	470
f 503 	504 	471
f 470 	503 	471
f 504 	505 	472
f 471 	504 	472
f 505 	506 	473
f 472 	505 	473
f 506 	507 	474
f 473 	506 	474
f 507 	508 	475
f 474 	507 	475
f 508 	509 	476
f 475 	508 	476
f 509 	510 	477
f 476 	509 	477
f 510 	511 	478
f 477 	510 	478
f 511 	512 	479
f 478 	511 	479
f 512 	513 	480
f 479 	512 	480
f 513 	514 	481
f 480 	513 	481
f 514 	515 	482
f 481 	514 	482
f 515 	516 	483
f 482 	515 	483
f 516 	517 	484
f 483 	516 	484
f 517 	518 	485
f 484 	517 	485
f 518 	519 	486
f 485 	518 	486
f 519 	520 	487
f 486 	519 	487
f 520 	521 	488
f 487 	520 	488
f 521 	522 	489
f 488 	521 	489
f 522 	523 	490
f 489 	522 	490
f 523 	524 	491
f 490 	523 	491
f 524 	525 	492
f 491 	524 	492
f 525 	526 	493
f 492 	525 	493
f 461 	462 	527
f 462 	463 	527
f 463 	464 	527
f 464 	465 	527
f 465 	466 	527
f 466 	467 	527
f 467 	468 	527
f 468 	469 	527
f 469 	470 	527
f 470 	471 	527
f 471 	472 	527
f 472 	473 	527
f 473 	474 	527
f 474 	475 	527
f 475 	476 	527
f 476 	477 	527
f 477 	478 	527
f 478 	479 	527
f 479 	480 	527
f 480 	481 	527
f 481 	482 	527
f 482 	483 	527
f 483 	484 	527
f 484 	485 	527
f 485 	486 	527
f 486 	487 	527
f 487 	488 	527
f 488 	489 	527
f 489 	490 	527
f 490 	491 	527
f 491 	492 	527
f 492 	493 	527
f 495 	494 	528
f 496 	495 	528
f 497 	496 	528
f 498 	497 	528
f 499 	498 	528
f 500 	499 	528
f 501 	500 	528
f 502 	501 	528
f 503 	502 	528
f 504 	503 	528
f 505 	504 	528
f 506 	505 	528
f 507 	506 	528
f 508 	507 	528
f 509 	508 	528
f 510 	509 	528
f 511 	510 	528
f 512 	511 	528
f 513 	512 	528
f 514 	513 	528
f 515 	514 	528
f 516 	515 	528
f 517 	516 	528
f 518 	517 	528
f 519 	518 	528
f 520 	519 	528
f 521 	520 	528
f 522 	521 	528
f 523 	522 	528
f 524 	523 	528
f 525 	524 	528
f 526 	525 	528
f 461 	493 	494
f 494 	493 	526
# 130 faces

 #end of obj_35

o obj_36
v 2 		0.1567 		56.5523
v 2 		20 		50.851
v 2 		-5 		40.7013
v 2 		14.8433 		35
v -20 		20 		50.851
v -20 		0.1567 		56.5523
v -20 		14.8433 		35
v -20 		-5 		40.7013
# 8 vertices

g group_36_1206582

usemtl color_1206582
s 0

f 529 	531 	530
f 531 	532 	530
f 533 	535 	534
f 535 	536 	534
f 533 	534 	530
f 534 	529 	530
f 536 	535 	531
f 535 	532 	531
f 534 	536 	529
f 536 	531 	529
f 530 	532 	533
f 532 	535 	533
# 12 faces

 #end of obj_36

